<svg xmlns="http://www.w3.org/2000/svg" viewBox="0 0 1000 300" width="1000" height="300" role="img" aria-label="Contribuciones de PassBri en los últimos 31 días: 32">
<style>.t{font:12px 'Segoe UI',Arial,sans-serif;fill:#a9b8d0}.h{font:600 17px 'Segoe UI',Arial,sans-serif;fill:#e6edf7}.s{font:13px 'Segoe UI',Arial,sans-serif;fill:#a9b8d0}.r{stroke:#a9b8d0;stroke-opacity:.12}.p{fill:#ffc83d}</style>
<defs><linearGradient id="g" x1="0" y1="0" x2="0" y2="1"><stop offset="0" stop-color="#3aa0ff" stop-opacity=".45"/><stop offset="1" stop-color="#3aa0ff" stop-opacity="0"/></linearGradient></defs>
<rect width="1000" height="300" rx="12" fill="#0b1530"/>
<text x="56" y="34" class="h">Contribuciones · últimos 31 días</text>
<text x="976" y="34" text-anchor="end" class="s">32 contribuciones · 4 días activos</text>
<line x1="56" x2="976" y1="256" y2="256" class="r"/><text x="46" y="260" text-anchor="end" class="t">0</text><line x1="56" x2="976" y1="208" y2="208" class="r"/><text x="46" y="212" text-anchor="end" class="t">4</text><line x1="56" x2="976" y1="160" y2="160" class="r"/><text x="46" y="164" text-anchor="end" class="t">8</text><line x1="56" x2="976" y1="112" y2="112" class="r"/><text x="46" y="116" text-anchor="end" class="t">12</text><line x1="56" x2="976" y1="64" y2="64" class="r"/><text x="46" y="68" text-anchor="end" class="t">16</text>
<path d="M56.0 256.0 L86.7 256.0 L117.3 256.0 L148.0 256.0 L178.7 256.0 L209.3 256.0 L240.0 256.0 L270.7 256.0 L301.3 256.0 L332.0 256.0 L362.7 256.0 L393.3 256.0 L424.0 256.0 L454.7 256.0 L485.3 256.0 L516.0 256.0 L546.7 256.0 L577.3 256.0 L608.0 256.0 L638.7 256.0 L669.3 256.0 L700.0 256.0 L730.7 256.0 L761.3 256.0 L792.0 256.0 L822.7 256.0 L853.3 184.0 L884.0 88.0 L914.7 136.0 L945.3 232.0 L976.0 256.0 L976.0 256 L56 256 Z" fill="url(#g)"/>
<path d="M56.0 256.0 L86.7 256.0 L117.3 256.0 L148.0 256.0 L178.7 256.0 L209.3 256.0 L240.0 256.0 L270.7 256.0 L301.3 256.0 L332.0 256.0 L362.7 256.0 L393.3 256.0 L424.0 256.0 L454.7 256.0 L485.3 256.0 L516.0 256.0 L546.7 256.0 L577.3 256.0 L608.0 256.0 L638.7 256.0 L669.3 256.0 L700.0 256.0 L730.7 256.0 L761.3 256.0 L792.0 256.0 L822.7 256.0 L853.3 184.0 L884.0 88.0 L914.7 136.0 L945.3 232.0 L976.0 256.0" fill="none" stroke="#3aa0ff" stroke-width="2.5" stroke-linejoin="round"/>
<circle cx="56.0" cy="256.0" r="3.5" class="p"><title>2026-09-04: 0</title></circle><circle cx="86.7" cy="256.0" r="3.5" class="p"><title>2026-09-05: 0</title></circle><circle cx="117.3" cy="256.0" r="3.5" class="p"><title>2026-09-06: 0</title></circle><circle cx="148.0" cy="256.0" r="3.5" class="p"><title>2026-09-07: 0</title></circle><circle cx="178.7" cy="256.0" r="3.5" class="p"><title>2026-09-08: 0</title></circle><circle cx="209.3" cy="256.0" r="3.5" class="p"><title>2026-09-09: 0</title></circle><circle cx="240.0" cy="256.0" r="3.5" class="p"><title>2026-09-10: 0</title></circle><circle cx="270.7" cy="256.0" r="3.5" class="p"><title>2026-09-11: 0</title></circle><circle cx="301.3" cy="256.0" r="3.5" class="p"><title>2026-09-12: 0</title></circle><circle cx="332.0" cy="256.0" r="3.5" class="p"><title>2026-09-13: 0</title></circle><circle cx="362.7" cy="256.0" r="3.5" class="p"><title>2026-09-14: 0</title></circle><circle cx="393.3" cy="256.0" r="3.5" class="p"><title>2026-09-15: 0</title></circle><circle cx="424.0" cy="256.0" r="3.5" class="p"><title>2026-09-16: 0</title></circle><circle cx="454.7" cy="256.0" r="3.5" class="p"><title>2026-09-17: 0</title></circle><circle cx="485.3" cy="256.0" r="3.5" class="p"><title>2026-09-18: 0</title></circle><circle cx="516.0" cy="256.0" r="3.5" class="p"><title>2026-09-19: 0</title></circle><circle cx="546.7" cy="256.0" r="3.5" class="p"><title>2026-09-20: 0</title></circle><circle cx="577.3" cy="256.0" r="3.5" class="p"><title>2026-09-21: 0</title></circle><circle cx="608.0" cy="256.0" r="3.5" class="p"><title>2026-09-22: 0</title></circle><circle cx="638.7" cy="256.0" r="3.5" class="p"><title>2026-09-23: 0</title></circle><circle cx="669.3" cy="256.0" r="3.5" class="p"><title>2026-09-24: 0</title></circle><circle cx="700.0" cy="256.0" r="3.5" class="p"><title>2026-09-25: 0</title></circle><circle cx="730.7" cy="256.0" r="3.5" class="p"><title>2026-09-26: 0</title></circle><circle cx="761.3" cy="256.0" r="3.5" class="p"><title>2026-09-27: 0</title></circle><circle cx="792.0" cy="256.0" r="3.5" class="p"><title>2026-09-28: 0</title></circle><circle cx="822.7" cy="256.0" r="3.5" class="p"><title>2026-09-29: 0</title></circle><circle cx="853.3" cy="184.0" r="3.5" class="p"><title>2026-09-30: 6</title></circle><circle cx="884.0" cy="88.0" r="3.5" class="p"><title>2026-10-01: 14</title></circle><circle cx="914.7" cy="136.0" r="3.5" class="p"><title>2026-10-02: 10</title></circle><circle cx="945.3" cy="232.0" r="3.5" class="p"><title>2026-10-03: 2</title></circle><circle cx="976.0" cy="256.0" r="3.5" class="p"><title>2026-10-04: 0</title></circle><text x="56" y="276" text-anchor="middle" class="t">4</text><text x="148" y="276" text-anchor="middle" class="t">7</text><text x="240" y="276" text-anchor="middle" class="t">10</text><text x="332" y="276" text-anchor="middle" class="t">13</text><text x="424" y="276" text-anchor="middle" class="t">16</text><text x="516" y="276" text-anchor="middle" class="t">19</text><text x="608" y="276" text-anchor="middle" class="t">22</text><text x="700" y="276" text-anchor="middle" class="t">25</text><text x="792" y="276" text-anchor="middle" class="t">28</text><text x="884" y="276" text-anchor="middle" class="t">1</text><text x="976" y="276" text-anchor="middle" class="t">4</text>
</svg>
